<svg id="Layer_1" data-name="Layer 1" xmlns="http://www.w3.org/2000/svg" viewBox="0 0 400 300" width="406" height="306" class="illustration styles_illustrationTablet__1DWOa"><title>_</title><path d="M106.38,80C74.9,92.52,51.55,124.38,47,162.91c-3.88,32.47,5.39,68.36,60,78.58,106.19,19.89,205.64,25.56,231-28.11s25.39-135.3-37.59-147.59C258,57.53,167.87,55.42,106.38,80Z" fill="#e6e6e6" opacity="0.3"></path><path d="M137.76,207.92a86.15,86.15,0,0,0,20.79,17.74V271h90.61V141.9l-91.19-13s-33.26,16.5-32.1,42.41C125.87,171.27,128.39,196.42,137.76,207.92Z" fill="#24285b"></path><path d="M274.1,124.4h-149c-2.2,6.36-8.07,27.07.74,46.87,0,0,12.93-31,41.09-35,29.38-4.12,52,9.91,54,36.31s-20.36,44.57-20.36,44.57v26.41c0,6.93,13.09,11.55,22.34,13.2s36,8.25,44.23,3,8.58-8.58,8.58-17.82V213.53s15.52,4.62,17.17-5.28-13.87-39-15.85-46.88C275.49,155.1,276.19,134.18,274.1,124.4Z" fill="#68e1fd"></path><circle cx="172.45" cy="181.2" r="34.68" fill="#68e1fd"></circle><path d="M269.62,157.33s-35.4,4.95-31.93,7.18,30.7,5.73,31.93,4.47S269.62,157.33,269.62,157.33Z" fill="#24285b"></path><path d="M202,99.35s-20.13,10.06-24.76,9.9-33.34-6.27-35.48-9.9-1.82-13-1.82-13-6.76-5.78-7.92-8.91,2.15-20.31,5.12-25.92S155,36.79,159.26,35.64,200,29,200,29s20.63,2.47,27.89,5S250.21,42.4,254,45.71s12.55,16,12.22,20.63-6.77,20.3-9.41,23.43-15.35,9.41-15.35,9.41Z" fill="#ffd200"></path><path d="M153.93,77.11V64.94l13-12.89h10.42a3.36,3.36,0,1,0,0-2H166.53a1,1,0,0,0-.71.29l-13.6,13.47a1,1,0,0,0-.29.71V77.11a3.36,3.36,0,1,0,2,0Z" fill="#fff"></path><path d="M250.87,53.43a3.34,3.34,0,0,0-3.19,2.35H216.41L207.3,42.36a1,1,0,0,0-.83-.44H183.74a3.36,3.36,0,1,0,0,2h22.2l9.11,13.43a1,1,0,0,0,.83.43h31.8a3.35,3.35,0,1,0,3.19-4.35Z" fill="#fff"></path><path d="M248.23,65.79A3.33,3.33,0,0,0,245,68.14H200V55.83a3.36,3.36,0,1,0-2,0V69.14a1,1,0,0,0,1,1h46a3.35,3.35,0,1,0,3.19-4.35Z" fill="#fff"></path><path d="M237,80.3a3.36,3.36,0,0,0-3.19,2.36H187.52l-5.64-8.11a3.35,3.35,0,1,0-2.64,1.31,3.21,3.21,0,0,0,1-.17l5.94,8.54a1,1,0,0,0,.82.43h46.82A3.35,3.35,0,1,0,237,80.3Z" fill="#fff"></path><path d="M169.67,86.75v-23h18.6a3.35,3.35,0,1,0-.23-2H168.67a1,1,0,0,0-1,1v24a3.36,3.36,0,1,0,2,0Z" fill="#fff"></path></svg>