<svg id="Layer_2" data-name="Layer 2" xmlns="http://www.w3.org/2000/svg" xmlns:xlink="http://www.w3.org/1999/xlink" viewBox="0 0 400 300" width="406" height="306" class="illustration styles_illustrationTablet__1DWOa"><defs><linearGradient id="linear-gradient" x1="308.07" y1="214.08" x2="328.74" y2="192.11" gradientUnits="userSpaceOnUse"><stop offset="0" stop-color="#ff734d" stop-opacity="0"></stop><stop offset="1" stop-color="#42210b"></stop></linearGradient><linearGradient id="linear-gradient-2" x1="47.5" y1="198.13" x2="68.17" y2="176.16" xlink:href="#linear-gradient"></linearGradient><linearGradient id="linear-gradient-3" x1="174.66" y1="251.41" x2="228.86" y2="193.78" xlink:href="#linear-gradient"></linearGradient><linearGradient id="linear-gradient-4" x1="273.61" y1="154.03" x2="285.15" y2="141.77" xlink:href="#linear-gradient"></linearGradient><linearGradient id="linear-gradient-5" x1="122.73" y1="153.88" x2="137.59" y2="138.08" xlink:href="#linear-gradient"></linearGradient></defs><title>PP</title><path d="M196.24,288.6,23.74,186.65c-5.49-3.08-10.2-8.15-4.85-11.46L192,75.41c2.6-1.61,6.54-2.66,9.18-1.13L382.28,179.37c5.49,3.19,6.48,12.1,1,15.29L219,288.44A22.94,22.94,0,0,1,196.24,288.6Z" fill="#ffbe30"></path><path d="M324.36,221.92s26.89-15.75,31.94-20.66c-1.85-1.33-44.65-13.1-46.44-14.5A168.32,168.32,0,0,0,286,199.05C290.69,201.48,319.61,219.7,324.36,221.92Z" opacity="0.41" fill="url(#linear-gradient)"></path><path d="M63.79,206s26.89-15.75,31.94-20.66c-1.85-1.33-44.65-13.1-46.44-14.5A168.32,168.32,0,0,0,25.47,183.1C30.12,185.52,59,203.75,63.79,206Z" opacity="0.41" fill="url(#linear-gradient-2)"></path><path d="M179.65,240.32c6.7-6.7,84.43-44.45,91.22-51.05-2.51-1.82-5.54-3.38-8-5.29-9.42,3.89-93.21,36.77-102,41.9C165.78,229.81,174.84,236.32,179.65,240.32Z" opacity="0.41" fill="url(#linear-gradient-3)"></path><path d="M264.83,151.52c1.41-.24,2.55-.2,3.09.44-1,9.73,6,5,9.09,7.43l2.64-1.1q8-8,16.09-15.92c-1.85-1.33-3.64-2.75-5.43-4.15A170.42,170.42,0,0,0,264.83,151.52Z" opacity="0.41" fill="url(#linear-gradient-4)"></path><path d="M296.48,142.45v-48H286v48.39C289.65,143.92,293.45,144.08,296.48,142.45Z" fill="#a83f1e"></path><path d="M292.32,94.62v49.13a10.52,10.52,0,0,0,4.16-1.16v-48Z" fill="#7f2b14"></path><path d="M305.79,99c6.5-.31,14.81-2.65,12.38-9.88-1.44-4.28-5.86-8-8.69-11.44s-2.2-5.66-5.36-9c2.69.11,6.6-.4,7.26-3.06C312,63.27,299.4,49,294,43.14a3.48,3.48,0,0,0-4.71-.34c-6.47,5.15-23,18.86-20.68,22.81C270,68,272.78,68.81,275.3,69c-5.94,6-12.71,13.4-13.4,21.34-.6,6.88,6.44,7.8,13,7.45-4.53,5.51-16.83,21.2-14,26,1.48,2.51,6.25,3.34,9.08,3.91a90.16,90.16,0,0,0,18.6,1.79,57.3,57.3,0,0,0,18.5-2.79,25.91,25.91,0,0,0,9-5c2.89-2.71,1.27-5.6-.6-8.33C312.19,108.63,309,103.8,305.79,99Z" fill="#708b2a"></path><path d="M304.12,68.67s-7.91-.51-13.42-.37l27.89,22.93s.74-2.66-4.18-8.12S304.12,68.67,304.12,68.67Z" fill="#0d5b23"></path><path d="M305.79,99H289.57l26.5,22.76s2.93-2.14,1.16-5.24S305.79,99,305.79,99Z" fill="#0d5b23"></path><path d="M111.41,150.65c1.81-.3,3.28-.26,4,.56-1.27,12.54,7.75,6.41,11.7,9.57l3.4-1.42q10.3-10.32,20.73-20.51c-2.38-1.72-4.69-3.54-7-5.35A219.55,219.55,0,0,0,111.41,150.65Z" opacity="0.41" fill="url(#linear-gradient-5)"></path><path d="M152.19,139V77.17H138.73v62.34C143.39,140.86,148.28,141.07,152.19,139Z" fill="#a83f1e"></path><path d="M146.83,77.34v63.29a13.55,13.55,0,0,0,5.36-1.49V77.34Z" fill="#7f2b14"></path><path d="M164.18,83c8.37-.4,19.08-3.41,15.94-12.73-1.85-5.51-7.55-10.37-11.2-14.74-3.78-4.52-2.84-7.3-6.91-11.57,3.47.15,8.5-.51,9.35-3.94C172.11,37,156,18.52,148.95,11a4.48,4.48,0,0,0-6.07-.44c-8.33,6.63-29.61,24.29-26.64,29.38,1.79,3.07,5.41,4.13,8.66,4.41-7.65,7.67-16.38,17.27-17.26,27.49-.77,8.86,8.29,10,16.75,9.59-5.83,7.09-21.68,27.31-18.07,33.45,1.91,3.24,8.06,4.31,11.69,5a116.15,116.15,0,0,0,24,2.31c8-.09,16.24-.89,23.83-3.59,4-1.43,8.45-3.4,11.62-6.39,3.72-3.5,1.64-7.22-.77-10.73C172.43,95.39,168.31,89.17,164.18,83Z" fill="#708b2a"></path><path d="M162,43.91s-10.19-.66-17.28-.48L180.67,73s1-3.43-5.39-10.46S162,43.91,162,43.91Z" fill="#0d5b23"></path><path d="M164.18,83h-20.9l34.14,29.32s3.77-2.76,1.5-6.74S164.18,83,164.18,83Z" fill="#0d5b23"></path><path d="M92.9,165.44a10.17,10.17,0,0,0,1.26-4.15c.27-3.69-1.48-7.32-3.81-10.06-5.17-6.09-13.73-7.33-21.09-5.18-4.29,1.25-2.46,8,1.85,6.71a16.59,16.59,0,0,1,7.81-.5,3.09,3.09,0,0,0,.94,3.14,6.08,6.08,0,0,1,1.2,7.47,3.4,3.4,0,0,0,1.6,4.81,4,4,0,0,0,.4,1.82,3.33,3.33,0,0,0,4.27,3c.34-.1.68-.17,1-.24a3.2,3.2,0,0,0,3.35,3.2c.36,0,.74.42,1.06.77l.1.13-.62.19a6.65,6.65,0,0,1-2.78-.24c-3.37-.92-5.23,2.94-3.85,5.26l-1.19.33c-4.33,1.13-2.49,7.84,1.85,6.71,6.47-1.69,17.46-5.18,17.57-13.46C103.92,169.23,98.47,166.19,92.9,165.44Z" fill="#51642a"></path><path d="M95.4,176.72a16.7,16.7,0,0,0-4.34-7.83A9,9,0,0,0,93.41,162a8.62,8.62,0,0,0-7.48-7.72,10.14,10.14,0,0,0-3,.09,15.6,15.6,0,0,0-14.83-16.85c-13.53-1-12.84,15.82-12.84,15.82-4.59-2.41-13.07-4.47-14.91,4.7s7.76,16.47,8.94,17.23a114,114,0,0,0,16.42,9c1.69.9,3.41,1.75,5.18,2.52,5.39,2.35,12.26,5.68,18.1,3.12A11.44,11.44,0,0,0,95.4,176.72Z" fill="#708b2a"></path><path d="M81.8,171.19a9.61,9.61,0,0,0-7.25-4.69,8.52,8.52,0,0,0-1.49,0c-.84-3-2.76-5.43-6.4-5.88a11.09,11.09,0,0,0-8.95,3.24,9.88,9.88,0,0,0-12.33-1c-6.19,4.31-5.9,12.5-1.57,17.87a3.79,3.79,0,0,0,.21.58c1.52,3.3,4.77,5,8,6.43a51.42,51.42,0,0,0,11.9,3.6c3.66.62,8,1.39,11.59.27a7.38,7.38,0,0,0,4.89-4.54C85,183.18,85.06,176.25,81.8,171.19Z" fill="#86a033"></path><path d="M359.35,171.6a13.11,13.11,0,0,0,1.62-5.35c.34-4.76-1.9-9.43-4.92-13-6.67-7.85-17.7-9.45-27.19-6.68-5.53,1.62-3.18,10.28,2.39,8.65a21.39,21.39,0,0,1,10.07-.64,4,4,0,0,0,1.22,4,7.84,7.84,0,0,1,1.55,9.63,4.38,4.38,0,0,0,2.06,6.21,5.15,5.15,0,0,0,.52,2.35c.29,2.49,2.4,4.8,5.51,3.92.44-.12.88-.22,1.32-.31a4.12,4.12,0,0,0,4.32,4.13c.47,0,1,.54,1.36,1l.13.16c-.41.14-.78.24-.8.24a8.58,8.58,0,0,1-3.59-.32c-4.34-1.18-6.74,3.8-5,6.78l-1.53.43c-5.58,1.45-3.22,10.11,2.39,8.65,8.35-2.17,22.52-6.69,22.66-17.35C373.55,176.5,366.53,172.58,359.35,171.6Z" fill="#51642a"></path><path d="M362.57,186.15a21.53,21.53,0,0,0-5.6-10.1,11.67,11.67,0,0,0,3-8.94,11.12,11.12,0,0,0-9.64-10,13.08,13.08,0,0,0-3.9.12c.65-9.05-5.16-20.68-19.12-21.73-17.45-1.32-16.56,20.39-16.56,20.39-5.91-3.1-16.86-5.77-19.22,6.06s10,21.24,11.53,22.22a147,147,0,0,0,21.17,11.65c2.18,1.17,4.4,2.26,6.67,3.25,6.95,3,15.81,7.33,23.34,4A14.75,14.75,0,0,0,362.57,186.15Z" fill="#708b2a"></path><path d="M345,179c-2.08-3.23-5.41-5.81-9.35-6a11,11,0,0,0-1.92.06c-1.08-3.85-3.56-7-8.25-7.58A14.29,14.29,0,0,0,314,169.63a12.74,12.74,0,0,0-15.9-1.32c-8,5.55-7.61,16.12-2,23a4.89,4.89,0,0,0,.27.75c2,4.25,6.15,6.51,10.26,8.29A66.3,66.3,0,0,0,321.91,205c4.72.79,10.25,1.79,14.94.35a9.51,9.51,0,0,0,6.3-5.85C349.22,194.49,349.24,185.54,345,179Z" fill="#86a033"></path><path d="M208.36,89.17c-1.11-.19-15.64,6.7-18.69,8s-13.13,4.72-11.23,6.88,8.36,6.53,8.36,6.53l19.93-2" fill="#68e1fd"></path><path d="M208.36,89.17c-1.11-.19-15.64,6.7-18.69,8s-13.13,4.72-11.23,6.88,8.36,6.53,8.36,6.53l19.93-2" opacity="0.38"></path><path d="M249.59,94.94s3.64,2.95,4.77,5.77.49,9.35,0,9.87-1.93.59-1,2.45,2.42,9.06,1.66,13-2.86,9-4.87,10.08-10.29,4.91-13,3-8.82-5.29-8.82-5.29l-3.42-36.66-13-7.25-2.11-9.44L221.45,76" fill="#2e450d"></path><path d="M166.49,223.17s1.14,5.33,3.22,6.38,10.42.69,13.09-1.16a10.54,10.54,0,0,0,3.59-4.05l2.66,1.39s5.68-2,6.37-3.36-1.09-3.93-1.09-3.93" fill="#dda983"></path><path d="M192.57,211.91A84.53,84.53,0,0,1,189,196.75c-2,.18-7.22.67-10.09,1.12,0,0,0,0,0,.06.4,4,1,8.1,1.59,12.1.3,1.84.64,3.46-.72,5a7,7,0,0,1-4.25,2,27,27,0,0,1-5.11.89,7.55,7.55,0,0,0-1.75.25c-3.43,1.12-2.84,5.75-.48,7.47a12.46,12.46,0,0,0,9.48,1.82,28.56,28.56,0,0,0,5-1.77,6.75,6.75,0,0,1,3.21-2.32,11.43,11.43,0,0,1,2.19-1.36c2.22-1,4.78-1.52,6.27-3.54A29.92,29.92,0,0,0,192.57,211.91Z" fill="#a8560c"></path><path d="M185.84,207.37a9.27,9.27,0,0,1-5.16-.57c-.78-.32-1.12,1-.35,1.26a10.52,10.52,0,0,0,5.86.57C187,208.48,186.67,207.22,185.84,207.37Z" fill="#dda983"></path><path d="M186,210.1a9.27,9.27,0,0,1-5.16-.57c-.78-.32-1.12,1-.35,1.26a10.52,10.52,0,0,0,5.86.57C187.21,211.22,186.86,210,186,210.1Z" fill="#dda983"></path><path d="M186.23,212.84a9.27,9.27,0,0,1-5.16-.57c-.78-.32-1.12,1-.35,1.26a10.52,10.52,0,0,0,5.86.57C187.41,214,187.06,212.69,186.23,212.84Z" fill="#dda983"></path><path d="M264.54,192.59s5.32-1.22,6.33-3.32.53-10.43-1.36-13.07a10.54,10.54,0,0,0-4.11-3.53l1.35-2.69s-2.06-5.64-3.46-6.32-3.92,1.15-3.92,1.15" fill="#dda983"></path><path d="M252.88,166.7a84.53,84.53,0,0,1-15.1,3.85c.21,2,.79,7.21,1.28,10.08l.06,0c4-.47,8.09-1.08,12.08-1.78,1.84-.32,3.45-.7,5,.65a7,7,0,0,1,2.06,4.22,27,27,0,0,1,1,5.1,7.55,7.55,0,0,0,.28,1.75c1.17,3.42,5.8,2.75,7.48.36a12.46,12.46,0,0,0,1.67-9.51,28.56,28.56,0,0,0-1.85-5,6.75,6.75,0,0,1-2.37-3.17A11.43,11.43,0,0,1,263,171c-1-2.2-1.6-4.75-3.63-6.21A29.92,29.92,0,0,0,252.88,166.7Z" fill="#a8560c"></path><path d="M248.44,173.49a9.27,9.27,0,0,1-.49,5.17c-.3.79,1,1.11,1.27.33a10.52,10.52,0,0,0,.48-5.87C249.54,172.3,248.28,172.67,248.44,173.49Z" fill="#dda983"></path><path d="M251.17,173.26a9.27,9.27,0,0,1-.49,5.17c-.3.79,1,1.11,1.27.33a10.52,10.52,0,0,0,.48-5.87C252.27,172.06,251,172.43,251.17,173.26Z" fill="#dda983"></path><path d="M253.91,173a9.27,9.27,0,0,1-.49,5.17c-.3.79,1,1.11,1.27.33a10.52,10.52,0,0,0,.48-5.87C255,171.82,253.75,172.19,253.91,173Z" fill="#dda983"></path><path d="M200.32,131.59s-.23,49.09,5.21,56.58,10.17,7.44,13.85,6.56,26.44-7.47,29.3-9.89-.22-15.86-3.52-16.3-8.81,2.64-11.89,3.74-9.25,2.86-9.25,2.86l1.05-40.62S206.36,122.18,200.32,131.59Z" fill="#68e1fd"></path><path d="M200.32,131.59s-.23,49.09,5.21,56.58,10.17,7.44,13.85,6.56,26.44-7.47,29.3-9.89-.22-15.86-3.52-16.3-8.81,2.64-11.89,3.74-9.25,2.86-9.25,2.86l1.05-40.62S206.36,122.18,200.32,131.59Z" opacity="0.38"></path><path d="M229.64,135.65l-18.06,3.13s-35.65,18.28-39.71,26.59,4.43,33.23,4.8,36.55c.07.67.11,1.51.15,2.39.23.09.47.15.69.24,4.74,2,9.77,2.38,13-2.27-.65-2.05.42-1.47-.47-2.94-2.46-4.06.12-11.82-2.83-19.75,0,0,28.25-9.23,37.29-20.12S229.64,135.65,229.64,135.65Z" fill="#68e1fd"></path><path d="M199.67,136.84s-2.76-30.9-2.76-36.13,6.47-11.6,8.63-13.89,8.74-4.59,15.89.41,12.08,13.59,12.08,13.59-1.74,35.75-3.28,37.63S210.34,145.23,199.67,136.84Z" fill="#68e1fd"></path><path d="M189.52,109.09c-.34-.23-5.16-5.28-5.16-5.28l2.58-2.06s13.94-3.33,14.28-5.16-2.93-5.28-2.93-5.28-15.19,6.42-15.88,6.82-40.72,23.11-40.95,23.63,0,6.94,0,6.94l2.18,1.15,27.66-13.42s-.55,8,0,8.55a7,7,0,0,0,1.7,1l6.08-4.19,2.52-10.2,2.87-1,4.13,2.32,3.79-1.35Z" fill="#304608"></path><path d="M233.5,100.82a9.67,9.67,0,0,0-11.33-1.54c-6.6,3.19-17.71,14.3-19.8,14.74s-23.43,0-25.08,0-5.94.06-7.48.2-5.72,2.22-4.18,2.11,4.95-1.1,3.74-.44-7.92,2.64-6.71,3.41,5.17.66,10.67,0c0,0,11.88,5.06,18.92,5.39s14.59,1.13,21.87-3S237.68,107.53,233.5,100.82Z" fill="#68e1fd"></path><path d="M233.5,100.82a9.67,9.67,0,0,0-11.33-1.54c-6.6,3.19-17.71,14.3-19.8,14.74s-23.43,0-25.08,0-5.94.06-7.48.2-5.72,2.22-4.18,2.11,4.95-1.1,3.74-.44-7.92,2.64-6.71,3.41,5.17.66,10.67,0c0,0,11.88,5.06,18.92,5.39s14.59,1.13,21.87-3S237.68,107.53,233.5,100.82Z" fill="#fff" opacity="0.43"></path><ellipse cx="227.23" cy="105.85" rx="3.57" ry="2.72" transform="translate(-23.3 114.41) rotate(-26.93)" opacity="0.38"></ellipse><path d="M250.07,86.35s-17.75-16.89-28.44-19.18c0,0-5.49,1.24-4.65,6.39s1.12,6.2,1.12,6.2,19,12.12,22.33,17.18c0,0,4.1,3.06,9.16-2S250.07,86.35,250.07,86.35Z" fill="#98943b"></path><path d="M244.31,80.85a10.14,10.14,0,0,0-10.13,10.32,1,1,0,0,0,2,0,8.15,8.15,0,0,1,8.16-8.35A1,1,0,0,0,244.31,80.85Z" fill="#564e0d"></path><path d="M229,69.35c-5.87,1-8,7-7.47,12.28.14,1.25,2.11,1.26,2,0-.49-4.47,1-9.56,6-10.38C230.75,71,230.22,69.15,229,69.35Z" fill="#564e0d"></path><path d="M250.1,86.56c-1.6-.81-4.06,0-5.57.76a8.1,8.1,0,0,0-4.58,5.79c-.32,1.74-.11,4.09,1.84,4.75,2.17.73,4.86-.14,6.64-1.46C251,94.54,254.15,88.61,250.1,86.56Z" fill="#7a731f"></path><path d="M248.88,88.82c-1-.52-2.6,0-3.57.49A5.19,5.19,0,0,0,242.38,93c-.21,1.12-.07,2.62,1.18,3a5,5,0,0,0,4.25-.93C249.43,93.93,251.47,90.13,248.88,88.82Z" fill="#564e0d"></path><path d="M142.06,124.35l-3.29,1.89h-2.63l-4,2.55a2.53,2.53,0,0,0,2.72,3l4.12-2.31.66-1.4,3.54-1.81S143.79,125,142.06,124.35Z" fill="#511747"></path><ellipse cx="180.33" cy="97.18" rx="1.89" ry="2.58" fill="#676413"></ellipse><polyline points="180.09 94.61 172.26 98.48 173.19 103.29 180.84 99.55" fill="#676413"></polyline><ellipse cx="173.19" cy="100.71" rx="1.89" ry="2.58" fill="#511747"></ellipse><path d="M216.81,84.1s1.38,4,2.57,4.81c0,0-2.47,5.84-8.41,6l-3.28-2.77s2.55-12.86,5.09-13S216.81,84.1,216.81,84.1Z" fill="#f29c79"></path><path d="M213.66,80.5s1.4,3.51,1,5.44-4.13,7.11-7.9,8-6.06-9.35-6.06-9.35" fill="#fdb18f"></path><path d="M198.39,82.16c-.46-.13.7,4.3,2,4a4.41,4.41,0,0,0,2.28-1.58,5.68,5.68,0,0,0,4.74,2.19c3.07-.18,5.35-5.44,5.35-5.44S203.39,83.57,198.39,82.16Z" fill="#511747"></path><path d="M212,81.57c-2.52.57-10.21,2-15.13.16a1.53,1.53,0,0,1-.95-1.27c-.35-3-.53-12.73,11.29-14.28,13.86-1.82,15.32,10.2,12.75,17.27a1.53,1.53,0,0,1-.5.71c-.72.55-2.49,1.08-6-2.18A1.63,1.63,0,0,0,212,81.57Z" fill="#68e1fd"></path><path d="M206.73,93.93A15.17,15.17,0,0,0,215,83.3l2,1.27s-5.14,8.14-7.59,9S206.73,93.93,206.73,93.93Z" fill="#843d08"></path><path d="M212.78,81.37s1.09,4.67,2.82,5.28l-1.69,1.45s-2.78-4.18-2-6.54Z" fill="#843d08"></path><path d="M132.08,180.83c-3.64-3.67-10.14-2.19-14.62-.09a24.47,24.47,0,0,1-9.06,2.56C115.48,188,126.72,187.71,132.08,180.83Z" fill="#51642a"></path><path d="M251.4,226.95c-2.4-4.58-9.05-5.08-13.95-4.38a24.47,24.47,0,0,1-9.42-.21C233.43,228.93,244.26,231.94,251.4,226.95Z" fill="#86a033"></path><path d="M131.69,236.7c2.49,3.48,6.3,1.69,8.83-.63a10.81,10.81,0,0,1,5.26-3C141.12,228.73,134.36,229.58,131.69,236.7Z" fill="#a83f1e"></path><path d="M287.74,221.46c-1.82-1.84-5.07-1.1-7.31,0a12.23,12.23,0,0,1-4.53,1.28C279.44,225,285.07,224.9,287.74,221.46Z" fill="#51642a"></path><path d="M146.83,156.28c2.49,3.48,6.3,1.69,8.83-.63a10.81,10.81,0,0,1,5.26-3C156.25,148.31,149.5,149.16,146.83,156.28Z" fill="#a83f1e"></path><path d="M262.89,146.88c-2-4.14-5.56-2.47-8-.1-1.75,1.69-3.29,2.66-5,2.89C253.79,155,260,154.63,262.89,146.88Z" fill="#a83f1e"></path><path d="M215.86,266.12c2.49,3.48,6.3,1.69,8.83-.63a10.81,10.81,0,0,1,5.26-3C225.29,258.15,218.53,259,215.86,266.12Z" fill="#51642a"></path></svg>